<svg alt="Medium Tools Logo - analysis by Eucalyp from the Noun Project" xmlns="http://www.w3.org/2000/svg" xmlns:xlink="http://www.w3.org/1999/xlink" version="1.1" x="0px" y="0px" viewBox="0 0 64 80" style="enable-background:new 0 0 64 64;" xml:space="preserve"><g><path d="M52,9h10c0.553,0,1-0.447,1-1V2c0-0.553-0.447-1-1-1H52c-0.553,0-1,0.447-1,1v2H40c-0.421,0-0.796,0.263-0.939,0.658   L36.754,11H11V6c0-0.553-0.447-1-1-1H6c-2.757,0-5,2.243-5,5v36c0,2.757,2.243,5,5,5h19.153l-1,6H21v-3c0-0.553-0.447-1-1-1H10   c-0.553,0-1,0.447-1,1v8c0,0.553,0.447,1,1,1h10c0.553,0,1-0.447,1-1v-3h4c0.489,0,0.906-0.354,0.986-0.836L27.18,51H31v7   c0,2.757,2.243,5,5,5s5-2.243,5-5v-7h3.82l1.194,7.164C46.094,58.646,46.511,59,47,59h4v3c0,0.553,0.447,1,1,1h10   c0.553,0,1-0.447,1-1v-8c0-0.553-0.447-1-1-1H52c-0.553,0-1,0.447-1,1v3h-3.153l-1-6H62c0.553,0,1-0.447,1-1V12   c0-0.553-0.447-1-1-1H38.882L40.7,6H51v2C51,8.553,51.447,9,52,9z M19,61h-8v-6h8V61z M53,55h8v6h-8V55z M3,10c0-1.654,1.346-3,3-3   h3v34H6c-1.125,0-2.164,0.373-3,1.002V10z M6,49c-1.654,0-3-1.346-3-3s1.346-3,3-3h4c0.553,0,1-0.447,1-1V13h25.027L35.3,15H33   c-0.553,0-1,0.447-1,1v1.693c-0.4,0.141-0.79,0.302-1.169,0.481l-1.195-1.195c-0.391-0.391-1.023-0.391-1.414,0l-4.242,4.242   c-0.391,0.391-0.391,1.023,0,1.414l1.195,1.195C24.995,24.21,24.834,24.6,24.693,25H23c-0.553,0-1,0.447-1,1v6c0,0.553,0.447,1,1,1   h1.693c0.141,0.4,0.302,0.79,0.481,1.169l-1.195,1.195c-0.391,0.391-0.391,1.023,0,1.414l3.041,3.041   c-0.001,0.006-0.005,0.011-0.006,0.017L25.487,49H6z M38.728,19.387c0.758,0.215,1.479,0.513,2.144,0.885   c0.392,0.217,0.879,0.15,1.195-0.166l1.005-1.005l2.828,2.828l-1.005,1.005c-0.316,0.316-0.384,0.805-0.166,1.195   c0.372,0.664,0.67,1.386,0.885,2.144C45.735,26.703,46.128,27,46.575,27H48v4h-1.425c-0.447,0-0.84,0.297-0.962,0.728   c-0.215,0.758-0.513,1.479-0.885,2.144c-0.218,0.391-0.15,0.879,0.166,1.195l1.005,1.005l-2.828,2.828l-1.005-1.005   c-0.283-0.283-0.701-0.354-1.066-0.212v-2.456c1.882-1.513,3-3.795,3-6.227c0-4.411-3.589-8-8-8s-8,3.589-8,8   c0,2.431,1.118,4.713,3,6.227v2.456c-0.365-0.142-0.783-0.071-1.066,0.212l-1.005,1.005l-2.828-2.828l1.005-1.005   c0.316-0.316,0.384-0.805,0.166-1.195c-0.372-0.664-0.67-1.386-0.885-2.144C26.265,31.297,25.872,31,25.425,31H24v-4h1.425   c0.447,0,0.84-0.297,0.962-0.728c0.215-0.758,0.513-1.479,0.885-2.144c0.218-0.391,0.15-0.879-0.166-1.195l-1.005-1.005   l2.828-2.828l1.005,1.005c0.316,0.316,0.805,0.383,1.195,0.166c0.664-0.372,1.386-0.67,2.144-0.885   C33.703,19.265,34,18.872,34,18.425V17h4v1.425C38,18.872,38.297,19.265,38.728,19.387z M33,53V35h2v18H33z M33.443,33l2.141-5.712   c0.131-0.344,0.702-0.344,0.831,0L38.557,33H33.443z M40.622,32.811l-2.335-6.226C37.931,25.637,37.012,25,36,25   s-1.931,0.637-2.287,1.585c-0.001,0-0.001,0-0.001,0l-2.334,6.226C30.502,31.748,30,30.408,30,29c0-3.309,2.691-6,6-6s6,2.691,6,6   C42,30.408,41.498,31.748,40.622,32.811z M37,35h2v18h-2V35z M27.514,49l1.285-7.712c0.298,0.039,0.608-0.039,0.837-0.268   l1.195-1.195c0.055,0.026,0.113,0.047,0.169,0.073V49H27.514z M36,61c-1.654,0-3-1.346-3-3v-3h6v3C39,59.654,37.654,61,36,61z    M41,49v-9.102c0.056-0.025,0.114-0.047,0.169-0.073l1.195,1.195c0.195,0.195,0.451,0.293,0.707,0.293   c0.044,0,0.086-0.019,0.13-0.025L44.486,49H41z M61,13v36H46.513l-1.527-9.164c-0.001-0.006-0.005-0.011-0.006-0.017l3.041-3.041   c0.391-0.391,0.391-1.023,0-1.414l-1.195-1.195c0.18-0.379,0.341-0.769,0.481-1.169H49c0.553,0,1-0.447,1-1v-6c0-0.553-0.447-1-1-1   h-1.693c-0.141-0.4-0.302-0.79-0.481-1.169l1.195-1.195c0.391-0.391,0.391-1.023,0-1.414l-4.242-4.242   c-0.391-0.391-1.023-0.391-1.414,0l-1.195,1.195C40.79,17.995,40.4,17.834,40,17.693V16c0-0.553-0.447-1-1-1h-1.573l0.727-2H61z    M53,3h8v4h-8V3z"/><path d="M56,59h2c0.553,0,1-0.447,1-1s-0.447-1-1-1h-2c-0.553,0-1,0.447-1,1S55.447,59,56,59z"/><path d="M16,57h-2c-0.553,0-1,0.447-1,1s0.447,1,1,1h2c0.553,0,1-0.447,1-1S16.553,57,16,57z"/><circle cx="53" cy="29" r="1"/><circle cx="57" cy="29" r="1"/><circle cx="15" cy="29" r="1"/><circle cx="19" cy="29" r="1"/></g></svg>